<?xml version="1.0" encoding="utf-8"?>
<!-- Generator: Adobe Illustrator 27.5.0, SVG Export Plug-In . SVG Version: 6.00 Build 0)  -->
<svg version="1.1" xmlns="http://www.w3.org/2000/svg" xmlns:xlink="http://www.w3.org/1999/xlink" x="0px" y="0px"
	 viewBox="0 0 750 500" style="enable-background:new 0 0 750 500;" xml:space="preserve">
<g id="BACKGROUND">
	<rect style="fill:#F4CBBD;" width="750" height="500"/>
</g>
<g id="OBJECTS">
	<g>
		<defs>
			<rect id="SVGID_1_" width="750" height="500"/>
		</defs>
		<clipPath id="SVGID_00000043446685905147717400000015126824769482048158_">
			<use xlink:href="#SVGID_1_"  style="overflow:visible;"/>
		</clipPath>
		<g style="clip-path:url(#SVGID_00000043446685905147717400000015126824769482048158_);">
			<path style="fill:#ED8A72;" d="M599.893,254.945c-6.813,7.411-11.41,17.287-10.794,27.335c0.352,5.74,2.366,11.286,5.164,16.311
				c3.612,6.486,8.816,12.408,15.704,15.176c4.275,1.718,8.954,2.134,13.559,2.258c5.245,0.142,10.606-0.09,15.525-1.915
				c7.299-2.706,12.932-8.658,17.389-15.04c5.064-7.251,9.041-15.565,9.529-24.396c0.547-9.914-3.592-19.986-10.951-26.65
				c-7.193-6.513-18.725-10.139-28.449-9.475C616.847,239.212,606.173,248.113,599.893,254.945z"/>
			<path style="fill:#604DBD;" d="M474.684,156.593c-17.904-5.546-32.604-19.703-47.149-31.358
				c-42.524-34.076-97.608-52.576-152.008-49.395c-93.643,5.476-175.63,78.717-191.664,171.164
				c-9.685,55.843,10.596,112.738,66.752,133.897c32.769,12.347,65.101,6.171,98.658,2.124c34.868-4.205,64.755-3.682,98.639,7.725
				c36.923,12.431,73.142,32.435,112.885,33.711c43.798,1.406,70.255-26.307,87.651-63.644
				c14.948-32.084,30.288-57.333,57.75-80.114c20.384-16.909,43.729-32.968,55.688-57.431
				c17.878-36.573-2.663-84.757-38.044-102.383C566.64,92.391,530.667,173.936,474.684,156.593z"/>
			<path style="fill:#ED8A72;" d="M225.365,499.72c-29.498-30.796-78.274-41.416-99.739-78.264
				c-3.553-6.099-6.21-13.599-3.48-20.109c4.744-11.315,21.759-10.889,31.82-3.867c14.154,9.877,20.894,27.154,32.104,40.277
				c9.413,11.019,22.193,19.122,36.175,22.935c1.934,0.527,4.067,0.96,5.882,0.11c1.626-0.761,2.649-2.399,3.403-4.029
				c3.966-8.57,2.863-18.56,1.084-27.835c-3.81-19.856-10.325-39.108-14.301-58.931c-3.976-19.823-5.312-40.784,1.153-59.941
				c3.881-11.5,11.077-22.545,22.051-27.73c10.974-5.185,26.01-2.664,32.332,7.696c3.586,5.876,3.954,13.122,3.795,20.005
				c-0.845,36.42-13.61,71.704-15.208,108.099c-0.28,6.38,0.535,14.079,6.229,16.972c6.303,3.202,13.647-1.984,17.977-7.572
				c8.588-11.081,13.066-24.712,19.607-37.112c13.273-25.165,35.606-45.427,61.94-56.197c9.283-3.796,21.082-6.015,28.412,0.83
				c5.233,4.888,6.237,12.974,4.763,19.982c-3.182,15.132-15.542,26.359-27.23,36.484c-12.005,10.399-24.009,20.799-36.014,31.198
				c-9.167,7.941-19.18,17.867-18.003,29.939c14.488,3.505,28.042-7.164,41.449-13.677c14.193-6.895,30.486-9.39,46.091-7.056
				c11.551,1.727,24.571,8.39,25.422,20.038c0.876,11.992-11.684,20.47-23.238,23.802c-22.985,6.628-47.863,3.818-70.897,10.271
				c-17.696,4.957-33.803,15.438-45.504,29.608c-3.763,4.558-7.15,9.551-11.879,13.097c-10.005,7.501-29.226,7.998-39.559,0.378
				C232.676,522.247,233.708,508.431,225.365,499.72z"/>
			<path style="fill:#EEB8AA;" d="M557.968,51.753c-20.076,9.871-33.941,32.502-30.998,54.679
				c1.235,9.307,5.152,18.062,6.826,27.301c1.559,8.602,1.196,17.69,4.656,25.719c2.193,5.091,5.819,9.454,9.884,13.223
				c16.74,15.522,41.986,21.223,63.772,14.4c21.786-6.823,39.27-25.906,44.165-48.205c1.434-6.532,1.849-13.36,0.493-19.908
				c-1.767-8.534-6.41-16.153-9.61-24.262c-6.155-15.599-10.715-34.676-27.16-42.414C601.323,43.499,576.505,42.639,557.968,51.753z
				"/>
			<path style="fill:#F2E4DC;" d="M584.491,448.355c-0.001,0.633,0.007,1.298,0.318,1.849c0.603,1.068,2.033,1.262,3.258,1.334
				c6.827,0.403,19.499-5.316,10.381-12.949C590.638,432.05,584.498,441.043,584.491,448.355z"/>
			<path style="fill:#F2E4DC;" d="M609.415,423.553c-3.493,1.087-5.929,5.065-4.97,8.595c0.959,3.53,5.447,5.718,8.683,4.011
				c1.629-0.859,2.741-2.441,3.683-4.024c0.944-1.587,1.808-3.47,1.223-5.222C617.155,424.284,611.229,422.88,609.415,423.553"/>
			<path style="fill:#F2E4DC;" d="M572.523,417.386c-0.137,4.539,2.093,9.084,5.766,11.754c1.07,0.777,2.27,1.409,3.568,1.661
				c1.831,0.355,3.743-0.071,5.445-0.834c5.508-2.469,9.063-8.819,8.068-14.772C592.831,400.001,572.983,402.122,572.523,417.386z"
				/>
			<path style="fill:#F2E4DC;" d="M625.201,404.411c-0.489-2.297-3.347-2.095-5.115-1.751c-2.702,0.525-5.168,1.974-6.653,4.341
				c-0.405,0.646-0.734,1.474-0.377,2.148c0.212,0.402,0.624,0.653,1.017,0.884c2.021,1.19,4.412,2.418,6.599,1.571
				c1.618-0.626,2.616-2.219,3.5-3.712C624.803,406.825,625.459,405.625,625.201,404.411z"/>
			<path style="fill:#F2E4DC;" d="M672.146,391.803c-2.156,1.52-3.512,4.252-3.047,6.849c0.465,2.597,2.949,4.784,5.579,4.581
				c0.637-0.049,1.286-0.239,1.758-0.67c0.509-0.466,0.751-1.151,0.931-1.818c0.544-2.014,0.674-4.24-0.222-6.124
				c-0.897-1.884-3.032-3.274-5.066-2.809"/>
			<path style="fill:#F2E4DC;" d="M673.419,450.437c-1.318,2.677-1.417,5.926-0.264,8.678c1.153,2.752,3.538,4.96,6.371,5.898
				c3.44,1.139,7.339,0.387,10.413-1.531c3.075-1.918,5.38-4.9,6.975-8.155c2.779-5.671,5.761-18.17-4.183-16.857
				C686.543,439.288,676.212,444.764,673.419,450.437z"/>
			<path style="fill:none;stroke:#F2E4DC;stroke-width:1.5;stroke-miterlimit:10;" d="M43.254,234.749
				c96.162-69.833,216.749-142.364,321.384-198.713"/>
			<path style="fill:none;stroke:#0F2A6B;stroke-width:1.5;stroke-miterlimit:10;" d="M8.422,226.963
				C104.583,157.13,225.17,84.599,329.805,28.25"/>
			<path style="fill:none;stroke:#0F2A6B;stroke-width:1.5;stroke-miterlimit:10;" d="M447.857,243.038
				c83.494,28.703,166.989,57.407,250.483,86.11"/>
			<path style="fill:none;stroke:#0F2A6B;stroke-width:1.5;stroke-miterlimit:10;" d="M543.218,297.972
				c83.495,28.703,166.989,57.407,250.483,86.11"/>
			<path style="fill:#EEB8AA;" d="M51.093,33.197c37.31,2.556,73.531,14.433,107.177,30.758
				c-23.261,21.667-52.999,36.291-84.361,41.484c-19.284,3.193-39.012,2.887-58.462,0.938
				c-28.637-2.869-69.688-10.914-86.525-37.305C-36.377,40.959,6.589,30.145,51.093,33.197z"/>
			<path style="fill:#ED8A72;" d="M72.173,58.983c1.601,4.023,3.955,7.857,7.394,10.487c6.473,4.952,15.827,4.738,23.22,1.307
				c10.473-4.862,17.795-15.882,18.22-27.421c0.537-14.615-14.717-28.847-29.454-25.569C73.182,21.872,65.756,42.863,72.173,58.983z
				"/>
			<path style="fill:none;stroke:#0F2A6B;stroke-width:1.5;stroke-miterlimit:10;" d="M83.809,63.332
				c1.602,4.023,3.955,7.857,7.394,10.487c6.473,4.952,15.827,4.738,23.22,1.307c10.473-4.862,17.795-15.882,18.22-27.421
				c0.537-14.614-14.717-28.846-29.454-25.569C84.818,26.221,77.392,47.211,83.809,63.332z"/>
			<path style="fill:#F2E4DC;" d="M153.835,286.574c-0.463-0.273-0.93-0.531-1.393-0.775c-30.255-15.928-70.107-9.551-95.291,13.574
				c-4.717,4.332-8.986,9.206-12.214,14.737c-6.59,11.292-11.133,31.259-9.715,46.814L153.835,286.574z"/>
			<path style="fill:#F2E4DC;" d="M612.919,106.459c0.253,0.149,0.507,0.29,0.76,0.423c16.513,8.693,38.263,5.213,52.008-7.409
				c2.575-2.364,4.904-5.024,6.666-8.043c3.597-6.163,6.076-17.061,5.302-25.55L612.919,106.459z"/>
			<path style="fill:#F2E4DC;" d="M675.815,101.746c0.185,0.109,0.372,0.213,0.557,0.31c12.11,6.375,28.062,3.823,38.142-5.433
				c1.888-1.734,3.597-3.685,4.889-5.899c2.638-4.52,4.456-12.512,3.889-18.738L675.815,101.746z"/>
			<path style="fill:#0F2A6B;" d="M73.48,374.669c2.039-0.56,4.497-0.97,6.037,0.479c0.886,0.834,1.22,2.097,1.357,3.306
				c0.819,7.232-3.907,13.795-8.384,19.533c-7.572,9.705-15.144,19.411-22.716,29.116c-3.605,4.62,1.354,11.06,6.708,8.678
				c5.897-2.624,11.788-6.801,17.839-8.997c5.984-2.171,13.328-2.283,17.406,4.275c2.188,3.518,2.588,7.845,1.526,11.849
				c-2.166,8.17-8.845,13.636-15.246,18.745C59.069,476.768,40.131,491.884,21.194,507c-7.033,5.613-14.502,11.437-24.001,11.278
				c-4.545-0.076-8.979-1.931-11.717-5.559c-5.136-6.806-1.657-14.812,1.738-21.623c7.71-15.467,15.42-30.933,23.129-46.4
				c1.087-2.18,2.211-4.662,0.656-6.973c-1.194-1.774-3.45-2.506-5.547-2.085c-4.409,0.886-6.744,4.654-9.457,7.796
				c-5.696,6.599-14.176,11.423-22.897,11.54c-3.046-14.315,29.039-37.007,39.07-45.462
				C30.259,394.263,50.451,380.995,73.48,374.669z"/>
			<path style="fill:#0F2A6B;" d="M778.383,89.297c1.513,1.478,4.497-0.97,6.037,0.479c0.886,0.834,1.22,2.097,1.357,3.306
				c0.819,7.232-3.907,13.795-8.384,19.533c-7.572,9.705-15.144,19.411-22.716,29.116c-3.618,4.638,1.374,11.057,6.746,8.661
				c5.885-2.625,11.762-6.789,17.8-8.98c5.984-2.171,13.328-2.283,17.406,4.275c2.188,3.518,2.588,7.844,1.526,11.848
				c-2.166,8.17-8.845,13.636-15.246,18.745c-18.938,15.116-37.875,30.232-56.813,45.348c-7.188,5.737-14.832,11.695-24.634,11.259
				c-4.398-0.196-8.616-2.161-11.214-5.715c-4.947-6.768-1.498-14.696,1.867-21.448c7.71-15.467,15.42-30.933,23.129-46.4
				c1.087-2.18,2.211-4.662,0.656-6.973c-1.214-1.803-3.494-2.515-5.621-2.069c-4.361,0.913-6.684,4.656-9.382,7.781
				c-2.219,2.571-4.861,4.873-7.776,6.732c-6.664,4.251-14.204-4.184-9.378-10.444c9.175-11.903,27.86-30.942,34.743-36.743
				C736.579,102.358,764.245,75.487,778.383,89.297z"/>
			<path style="fill:#0F2A6B;" d="M312.209,147.194c-7.011,3.062-13.79,7.185-18.395,13.294c-4.605,6.109-6.704,14.494-3.905,21.614
				c4.272,10.867,17.801,14.94,29.46,14.306c11.66-0.634,23.142-4.503,34.778-3.524c9.305,0.783,18.054,4.619,27.171,6.635
				c9.117,2.017,19.593,1.871,26.658-4.235c6.841-5.913,8.632-16.364,5.679-24.911c-2.953-8.547-9.942-15.246-17.883-19.57
				C371.331,137.496,337.512,136.145,312.209,147.194z"/>
			<path style="fill:#ED8A72;" d="M427.994,54.5c20.533,14.522,48.717,15.743,72.085,6.447c7.205-2.866,14.178-6.754,19.351-12.53
				c11.974-13.37,11.835-33.339,10.756-51.254c-0.136-2.259-0.328-4.663-1.695-6.466c-1.914-2.523-5.437-3.038-8.591-3.329
				c-8.944-0.823-17.907-1.432-26.88-1.826c0.093,9.157-0.339,18.478-3.353,27.125s-8.932,16.637-17.309,20.337
				c-11.553,5.104-26.082,0.658-34.061-9.133c-7.979-9.79-9.668-23.853-5.808-35.879c-6.898-0.63-20.576-4.867-25.99,0.564
				c-4.628,4.643-3.962,17.061-3.406,22.93C404.684,28.263,414.04,44.907,427.994,54.5z"/>
			<path style="fill:#604DBD;" d="M497.724,481.898c1.17-1.472,2.472-2.897,3.918-4.273c11.585-11.02,30.77-19.263,46.774-14.11
				c14.83,4.775,23.256,18.704,39.862,19.682c15.759,0.927,33.389-7.066,48.161,1.332c5.268,2.995,9.355,8.008,11.226,13.771
				c0.449,1.384,0.777,2.857,0.518,4.289c-0.436,2.412-2.433,4.227-4.496,5.549c-7.362,4.72-16.493,5.443-25.193,6.329
				c-25.851,2.632-51.346,7.835-77.117,11.065c-12.91,1.618-26.021,2.957-39.049,2.803c-9.668-0.115-13.732-2.896-13.942-12.825
				C488.121,502.899,490.155,491.422,497.724,481.898z"/>
			<path style="fill:#604DBD;" d="M577.456,50.821c0.48,6.38,3.708,12.791,9.301,15.9c3.205,1.782,6.92,2.384,10.565,2.792
				c6.215,0.696,12.847,0.834,18.329-2.177c15.544-8.538,18.627-39.597-0.495-45.513C597.555,16.379,576.074,32.446,577.456,50.821z
				"/>
		</g>
	</g>
</g>
</svg>
